<?xml version="1.0" encoding="UTF-8"?>
<!DOCTYPE svg PUBLIC "-//W3C//DTD SVG 1.1//EN" "http://www.w3.org/Graphics/SVG/1.1/DTD/svg11.dtd">
<svg version="1.1" xmlns="http://www.w3.org/2000/svg" xmlns:xlink="http://www.w3.org/1999/xlink" x="0" y="0" width="734" height="789" viewBox="0, 0, 734, 789">
  <defs>
    <clipPath id="Clip_1">
      <path d="M248.97,241.935 L416.51,241.935 L416.51,351.228 L248.97,351.228 z"/>
    </clipPath>
  </defs>
  <g id="baby">
    <path d="M468.279,45.274 C483.205,49.804 497.86,55.233 512.147,61.49 C535.313,71.637 557.55,83.952 578.415,98.252 C578.895,95.58 579.565,94.555 581.938,91.861 C584.155,89.345 586.523,86.965 589.017,84.725 C593.752,80.475 598.954,76.741 604.466,73.566 C615.154,67.41 630.701,60.566 643.213,63.236 C643.356,63.267 643.469,63.336 643.564,63.427 C645.786,63.13 648.016,62.864 650.233,62.488 C653.163,61.992 656.071,61.372 658.951,60.639 C662.224,59.805 666.406,59.198 669.434,57.794 C675.08,55.177 677.251,50.823 673.762,45.236 C670.406,39.86 663.667,35.95 657.974,33.255 C648.963,28.989 639.128,26.206 629.648,23.192 C619.503,19.967 609.262,17.004 598.851,14.761 C579.444,10.579 559.574,8.472 539.718,8.744 C519.934,9.016 500.174,11.537 481.06,16.693 C471.686,19.223 462.482,22.384 453.508,26.087 C446.393,29.022 439.673,32.902 432.701,36.14 C444.553,39.21 456.548,41.712 468.279,45.274" fill="#85A2BB"/>
    <path d="M68.982,343.471 C72.81,343.48 76.623,341.816 79.86,339.906 C83.802,337.579 87.486,334.742 90.811,331.602 C94.978,327.666 98.048,323.311 100.874,318.73 C88.57,326.102 74.567,330.832 60.576,333.385 L60.505,333.397 C60.177,334.981 60.095,336.78 60.81,338.225 C62.062,340.758 66.095,343.463 68.982,343.471" fill="#903132"/>
    <path d="M590.765,567.855 C612.744,551.935 630.532,530.776 642.651,506.486 C656.676,478.375 662.342,446.816 659.686,415.52 C657.426,388.902 650.038,360.495 634.916,338.154 C619.958,316.055 596.065,298.925 573.281,285.669 C550.991,272.701 527.077,264.043 502.133,257.993 C499.509,262.24 496.524,266.266 493.178,269.968 C485.319,278.664 475.845,285.546 465.234,290.504 C445.471,299.738 422.994,303.268 401.325,303.888 C380.001,304.498 358.544,301.822 338.009,296.059 C317.1,290.191 297.114,281.236 278.93,269.354 C270.225,263.666 261.663,257.324 254.59,249.647 C253.579,248.549 252.571,247.392 251.601,246.188 C249.577,246.413 247.2,245.116 245.533,244.216 C244.44,243.626 243.424,242.924 242.45,242.157 C241.913,241.735 241.369,241.306 240.883,240.825 C240.109,240.056 239.624,239.106 239.104,238.176 C233.972,235.493 229.268,232.215 223.547,230.419 C216.375,228.168 208.821,227.197 201.318,227.213 C186.912,227.244 171.2,230.193 159.754,239.462 C141.078,254.588 137.954,281.593 123.104,299.811 C118.636,305.291 113.463,310.034 107.819,314.141 C105.415,320.005 100.79,325.613 96.761,329.934 C91.588,335.48 85.273,340.671 78.246,343.664 C73.53,345.673 67.99,346.806 63.286,344.126 C59.468,341.951 57.696,337.929 58.036,333.832 C54.116,334.498 50.086,335.053 46.037,335.34 C41.178,342.341 40.86,353.767 47.831,359.535 C56.338,366.572 70.022,363.314 79.639,360.865 C90.474,358.105 101.041,354.303 111.157,349.541 C116.025,347.25 120.781,344.708 125.549,342.218 C128.067,340.904 130.666,339.964 133.277,338.871 C136.444,337.544 139.252,335.604 142.445,334.348 C143.016,334.123 142.831,335.132 142.634,335.349 C140.929,337.237 139.162,339 137.338,340.658 C143.882,340.995 150.427,341.333 156.97,341.685 C191.699,343.553 226.449,346.25 261.208,347.376 C278.303,347.929 295.356,347.425 312.258,344.652 C328.758,341.944 344.925,337.517 360.998,332.98 C392.247,324.158 424.011,314.592 456.816,315.111 C487.637,315.597 515.156,326.895 539.762,345.003 C562.876,362.016 585.811,382.785 601.424,407.054 C617.55,432.121 623.466,462.953 615.629,491.938 C612.218,504.551 606.618,517.699 598.348,527.917 C596.631,530.04 594.75,531.875 592.745,533.477 C588.675,544.68 587.638,556.315 590.765,567.855" fill="#C3DBED"/>
    <path d="M533.714,77.398 C507.652,64.063 480.07,53.493 451.655,46.414 C439.242,43.321 426.723,39.534 414.172,37.066 C400.59,34.397 386.619,34.038 372.844,33.129 C312.725,29.164 252.445,37.013 194.629,53.618 C166.492,61.698 137.602,70.989 111.624,84.66 C89.243,96.438 69.688,113.56 56.651,135.377 C43.196,157.892 35.776,186.659 39.691,212.821 C40.723,219.716 42.652,226.501 45.567,232.842 C48.123,238.405 52.027,242.496 55.777,247.209 C56.139,246.148 56.658,245.1 57.372,244.026 C58.317,242.604 59.691,241.222 61.401,240.803 C62.574,240.516 64.006,240.612 65.218,240.573 C66.276,240.539 65.811,242.251 65.338,242.656 C64.314,243.536 64.135,244.466 63.487,245.56 C62.988,246.403 62.229,247.137 61.609,247.891 C60.55,249.179 59.844,250.635 59.2,252.132 C60.916,255.054 62.247,258.247 62.764,261.439 C67.291,256.123 74.389,252.192 81.338,254.835 C81.958,255.071 81.428,256.35 80.928,256.445 C74.377,257.684 68.042,258.599 62.944,262.972 C63.238,266.801 62.261,270.566 59.257,273.797 C58.459,274.655 57.43,274.589 56.511,274.068 C56.526,274.904 56.226,275.604 55.455,275.759 C41.588,278.548 25.703,280.663 15.836,291.955 C11.802,296.571 8.839,302.661 8.895,308.898 C8.969,317.093 14.756,323.222 21.944,326.278 C33.427,331.16 47.619,328.956 59.507,326.676 C70.801,324.511 81.887,320.811 92.08,315.464 C102.731,309.878 112.54,302.192 119.833,292.568 C126.539,283.717 130.797,273.393 135.443,263.392 C140,253.585 145.175,243.852 153.208,236.42 C162.022,228.267 173.742,224.301 185.439,222.584 C196.359,220.98 207.719,221.018 218.493,223.58 C226.695,225.53 235.61,228.852 241.609,235.048 C243.235,236.592 244.866,238.087 246.898,239.076 C244.93,235.181 243.854,230.96 244.555,226.541 C244.604,226.232 245.176,225.58 245.391,226.106 C247.755,231.901 249.639,237.252 253.697,242.097 C256.921,245.945 260.733,249.248 264.686,252.322 C274.299,259.796 284.492,266.602 295.212,272.385 C329.432,290.847 368.894,299.424 407.689,296.612 C428.018,295.138 449.287,291.027 467.099,280.689 C475.651,275.725 483.226,269.294 489.431,261.591 C492.385,257.923 495.03,253.995 497.314,249.875 C499.052,246.739 500.288,243.863 502.303,241.265 C502.635,232.158 479.739,232.895 474.992,232.966 C468.386,233.065 461.78,233.538 455.171,233.321 C441.466,232.872 429.438,228.186 417.45,221.83 C404.382,214.9 391.633,207.328 379.276,199.198 C374.315,195.934 369.441,192.537 365.067,188.503 C362.954,186.557 361.034,184.499 359.426,182.106 C357.677,179.505 357.768,177.897 357.098,175.062 C356.982,174.568 357.607,173.293 358.225,173.833 C363.15,178.14 367.342,183.214 372.517,187.294 C378.26,191.823 384.57,195.662 390.789,199.491 C404.879,208.168 419.753,217.661 435.477,223.056 C450.283,228.137 465.441,224.865 480.663,225.741 C489.799,226.266 512.124,230.064 508.757,244.013 C508.591,244.699 508.299,245.156 507.94,245.459 C507.867,246.363 507.681,247.284 507.283,248.334 C506.279,250.988 504.758,253.589 503.341,256.032 C503.285,256.127 503.223,256.219 503.166,256.315 C532.961,262.619 561.783,275.332 587.497,291.377 C611.744,306.506 634.715,325.017 647.199,351.302 C660.366,379.024 665.47,410.585 663.334,441.095 C659.733,492.546 633.479,541.197 591.152,570.984 C590.424,571.497 589.151,570.894 588.899,570.089 C585.401,558.905 585.281,546.901 589.242,535.957 C582.276,540.284 574.066,542.179 565.412,542.538 C534.658,543.812 508.309,526.596 479.766,518.198 C450.376,509.551 416.565,509.97 389.063,524.585 C365.485,537.112 349.315,559 340.66,583.786 C356.718,574.95 374.422,570.609 392.854,570.808 C409.858,570.993 426.725,574.961 441.974,582.509 C457.512,590.201 469.776,602.332 483.809,612.242 C498.048,622.296 514.545,627.75 531.339,620.648 C538.693,617.539 545.222,612.546 550.23,606.332 C552.924,602.988 555.112,599.204 556.724,595.227 C558.248,591.465 558.776,587.48 560.174,583.692 C561.281,580.693 564.572,584.248 564.793,585.959 C566.988,603.003 550.525,619.711 536.256,626.194 C535.51,626.533 534.759,626.832 534.007,627.127 C533.913,627.582 533.716,627.977 533.425,628.134 C527.718,631.222 526.298,637.54 527.209,643.627 C528.402,651.607 535.196,657.399 540.801,662.457 C549.998,670.757 557.565,679.765 562.776,691.125 C567.967,702.441 570.89,714.712 571.999,727.09 C573.162,740.074 573.229,753.725 570.179,766.432 C569.475,769.367 566.238,779.952 570.159,781.181 C573.049,782.087 578.1,776.809 579.791,775.137 C588.196,766.834 594.193,755.977 600.84,746.311 C609.129,734.255 617.89,722.386 625.122,709.65 C632.507,696.646 637.284,682.89 638.463,667.918 C639.596,653.524 637.916,639.101 635.496,624.921 C633.158,611.222 629.457,597.68 627.568,583.919 C626.027,572.704 626.471,561.748 634.079,552.794 C637.845,548.363 642.302,544.568 646.134,540.185 C651.076,534.533 655.912,528.781 660.638,522.945 C669.416,512.101 677.766,500.899 685.385,489.208 C700.889,465.416 712.848,439.546 719.449,411.87 C725.995,384.424 727.221,355.743 723.953,327.756 C711.16,218.171 629.274,126.292 533.714,77.398" fill="#85A2BB"/>
    <path d="M605.271,74.292 C597.72,66.897 587.229,66.514 577.246,65.559 C573.815,65.23 570.258,64.874 566.652,64.581 C566.563,64.558 566.475,64.53 566.386,64.508 C562.194,63.474 558.292,62.814 554.435,62.63 C546.444,59.555 538.406,56.6 530.349,53.686 C524.208,51.465 518.043,49.321 511.87,47.204 C511.019,45.792 509.891,44.506 508.786,43.319 C506.033,40.364 502.718,37.932 499.069,36.189 C491.865,32.75 481.744,30.852 474.279,34.667 C461.33,30.611 446.666,27.14 433.989,31.149 C433.308,31.365 432.943,32.059 432.838,32.862 C430.313,35.083 429.733,38.638 434.434,40.224 C443.875,43.409 453.574,45.594 463.349,47.5 C466.448,48.605 469.51,49.708 472.521,50.697 C483.974,54.459 495.38,58.373 506.64,62.683 C529.948,71.604 553.316,82.057 573.837,96.381 C576.03,97.911 579.917,97.6 581.787,95.715 C582.526,94.969 583.396,94.328 584.315,93.73 C585.732,93.802 587.155,93.484 588.344,92.654 C589.316,91.977 589.933,90.971 590.107,89.921 C591.656,88.565 592.763,86.87 592.845,84.378 C594.091,83.903 595.333,83.42 596.576,82.946 C598.094,82.367 599.475,81.934 600.544,81.25 C601.457,81.202 602.372,80.999 603.25,80.577 C605.396,79.547 607.457,76.432 605.271,74.292" fill="#647A8C"/>
    <path d="M559.293,54.823 C558.833,53.146 557.326,51.553 555.572,51.227 C558.387,51.75 553.147,50.681 553.722,50.81 C553.146,50.68 552.569,50.568 552,50.406 C550.424,49.961 548.709,49.36 547.255,48.668 C546.011,48.076 544.799,48.677 544.518,50.001 C544.199,51.5 545.103,53.128 546.246,54.041 C549.578,56.7 553.218,57.891 557.423,58.004 C559.132,58.05 559.655,56.145 559.293,54.823" fill="#647A8C"/>
    <path d="M551.17,583.731 C545.285,594.33 535.952,603.181 524.494,607.399 C522.727,608.05 520.907,608.588 519.053,609.025 C518.682,609.198 518.278,609.347 517.831,609.463 C505.238,612.712 492.249,613.187 479.315,612.076 C480.645,613.23 482.031,614.307 483.568,615.173 C487.412,617.338 491.737,618.652 496.041,619.585 C496.654,620.535 497.595,621.332 498.79,621.638 C518.202,626.628 541.245,622.142 553.681,607.641 C553.192,608.332 552.7,609.021 552.18,609.689 C549.187,613.526 545.682,616.888 542.683,620.729 C526.452,619.565 515.918,648.339 532.104,657.888 C532.68,658.228 533.274,658.107 533.705,657.61 C535.916,655.066 534.187,652.299 533.468,649.513 C532.623,646.239 532.432,642.585 533.227,639.298 C534.414,634.39 537.666,631.014 541.654,628.125 C543.233,626.981 544.889,625.548 546.555,624.38 C550.767,622.258 553.947,619.244 556.998,615.461 C560.519,611.095 562.131,607.637 562.106,601.961 C562.104,601.432 561.664,600.324 560.927,600.628 C559.006,601.421 557.568,602.698 556.309,604.166 C559.772,599.002 562.037,592.806 562.594,585.533 C563.035,579.768 553.384,579.744 551.17,583.731" fill="#647A8C"/>
    <path d="M626.272,603.962 C628.305,616.103 630.998,628.085 632.294,640.345 C633.55,652.219 633.824,664.249 632.544,676.131 C631.951,681.65 631.146,687.188 630.102,692.64 C629.412,696.23 628.576,699.786 627.815,703.359 C627.099,706.713 627.472,709.757 627.446,713.138 C627.435,714.693 629.016,716.93 630.519,715.413 C630.808,715.122 631.073,714.808 631.349,714.504 C631.668,713.857 632.001,713.217 632.316,712.567 C635.884,705.205 639.194,697.647 641.672,689.832 C642.246,686.774 642.69,683.754 643.076,680.901 C643.683,676.396 644.112,671.835 644.329,667.262 C644.243,666.889 644.156,666.517 644.05,666.143 C643.297,663.461 643.547,661.182 644.482,659.442 C644.435,654.995 644.159,650.558 643.604,646.166 C642.068,634.013 638.815,622.122 636.324,610.145 C633.798,598.002 633.751,585.134 629.359,573.546 C629.123,572.921 628.521,572.206 627.811,572.779 C623.927,575.924 623.883,581.385 624.115,586.002 C624.418,592.022 625.279,598.023 626.272,603.962" fill="#647A8C"/>
    <path d="M110.207,311.752 C110.155,311.479 109.918,311.193 109.612,311.234 C107.608,311.502 107.661,311.974 106.817,313.778 C105.545,316.502 104.204,319.129 102.39,321.535 C98.741,326.374 94.307,331.238 89.571,335 C85.146,338.516 79.937,341.77 74.377,343.041 C67.374,344.642 58.384,341.776 60.061,332.982 C60.343,331.509 58.262,326.74 56.675,329.496 C53.638,334.773 56.029,341.107 60.139,345.143 C66.11,351.006 74.717,350.403 81.942,347.388 C89.416,344.268 96.77,338.678 101.774,332.287 C104.005,329.438 105.566,326.093 107.152,322.863 C108.985,319.132 110.994,315.917 110.207,311.752" fill="#748DA0"/>
    <path d="M579.922,371.9 C579.251,371.263 578.59,370.618 577.91,369.99 C576.387,368.58 574.836,367.199 573.272,365.835 C576.935,368.446 580.515,371.171 584.006,374.031 C582.67,373.181 581.302,372.453 579.922,371.9 M629.98,434.574 C624.92,405.667 606.311,383.135 582.888,366.465 C570.966,357.981 557.889,349.188 544.318,343.33 C540.924,340.646 536.508,339.315 532.363,338.304 C531.264,338.036 530.69,340.301 531.482,340.868 C533.729,342.474 536.004,344.123 538.481,345.365 C538.647,345.449 538.816,345.538 538.984,345.626 C539.255,346.517 539.802,347.342 540.49,347.838 C562.885,363.94 585.346,381.458 599.899,405.362 C607.075,417.15 612.122,430.17 614.57,443.762 C615.809,450.635 616.182,457.629 615.984,464.604 C615.794,471.267 612.977,478.702 614.97,485.097 C615.128,485.605 615.561,486.212 616.13,486.765 C614.276,491.511 612.12,495.898 609.349,500.175 C607.606,502.866 605.941,505.276 604.734,508.261 C604.299,509.336 604.901,513.192 606.823,511.964 C612.908,508.077 616.527,500.964 620.029,494.834 C623.486,488.781 626.09,482.307 628.027,475.614 C631.865,462.351 632.357,448.16 629.98,434.574" fill="#8FA0AD"/>
    <path d="M480.055,73.376 C459.533,56.298 431.428,51.057 405.7,47.738 C379.637,44.376 353.327,42.936 327.055,43.384 C274.469,44.28 222.394,52.939 172.393,69.266 C160.935,73.008 149.73,77.103 139.52,83.627 C134.743,86.679 129.575,90.24 125.914,94.626 C121.907,99.429 120.119,105.647 118.877,111.634 C118.346,114.197 126.09,125.832 128.895,123.627 C132.557,120.749 136.576,118.401 140.369,115.708 C144.763,112.589 148.676,109.125 153.407,106.442 C162.112,101.506 171.682,97.945 181.123,94.693 C205.42,86.325 230.522,80.03 255.799,75.454 C306.012,66.365 356.965,63.367 407.827,68.155 C421.658,69.457 435.35,71.365 448.976,74.057 C455.375,75.321 461.668,76.833 468.023,78.287 C470.869,78.938 473.835,79.248 476.653,79.964 C479.458,80.677 481.628,82.007 484.564,81.796 C487.407,81.592 480.747,73.952 480.055,73.376" fill="#FFFFFF"/>
    <path d="M706.075,306.73 C699.752,273.175 684.712,241.49 661.463,216.38 C660.877,215.748 658.252,212.789 657.295,214.105 C656.346,215.408 659.117,218.965 659.74,219.748 C677.809,242.372 687.849,270.749 692.617,299.046 C695.604,316.773 696.186,334.515 697.441,352.385 C698.119,362.046 698.108,371.461 697.59,381.139 C697.077,390.698 694.963,400.198 695.115,409.759 C695.129,410.673 698.111,414.966 698.681,413.697 C702.4,405.413 702.704,395.242 704.244,386.307 C705.083,381.443 705.654,376.541 706.446,371.671 C707.102,367.634 708.235,363.787 708.565,359.689 C710.002,341.868 709.388,324.317 706.075,306.73" fill="#FFFFFF"/>
    <path d="M495.519,544.941 C479.886,531.746 458.601,525.81 438.464,524.649 C419.186,523.538 397.553,528.174 382.208,540.139 C380.545,541.436 386.311,548.893 388.388,548.15 C397.716,544.808 407.463,541.427 417.164,539.36 C426.569,537.356 436.071,536.825 445.662,536.865 C454.735,536.904 463.806,538.05 472.592,540.325 C481.015,542.505 488.873,546.708 497.279,548.678 C498.327,548.924 495.824,545.199 495.519,544.941" fill="#FFFFFF"/>
    <path d="M446.322,238.32 C437.888,236.464 429.181,236.116 420.627,234.828 C412.829,233.655 405.227,231.448 398.012,228.267 C390.974,225.164 384.255,221.201 378.212,216.434 C372.498,211.927 366.372,206.398 362.085,200.514 C361.676,199.954 361.026,199.753 361.556,200.631 C365.941,207.879 370.27,214.264 376.494,220.138 C383.312,226.575 390.968,232.078 399.321,236.347 C407.334,240.443 415.971,243.461 424.801,245.207 C432.683,246.765 442.779,248.002 449.78,243.181 C450.987,242.35 447.196,238.512 446.322,238.32" fill="#FFFFFF"/>
    <path d="M45.339,276.42 C34.422,271.902 21.099,279.63 13.982,287.877 C10.167,292.299 7.3,297.432 5.682,303.052 C3.8,309.584 3.43,314.751 8.097,320.125 C8.697,320.816 9.414,321.338 10.304,320.816 C13.784,318.777 13.728,314.94 14.19,311.272 C14.867,305.889 16.555,300.753 19.522,296.189 C21.957,292.442 25.213,289.299 28.933,286.838 C34.059,283.448 40.117,282.419 45.144,279.013 C45.866,278.523 46.39,276.856 45.339,276.42" fill="#ACD2F2"/>
    <path d="M59.783,240.637 C59.467,239.883 59.162,239.93 58.372,240.093 C57.511,240.27 57.581,240.281 57.102,240.873 C56.918,241.1 56.742,241.328 56.587,241.577 C55.849,242.769 55.312,244.123 54.69,245.377 C54.051,246.666 55.37,249.649 56.732,247.801 C58.094,245.953 60.84,243.156 59.783,240.637" fill="#ACD2F2"/>
    <path d="M70.328,253.393 C67.127,251.926 62.95,255.614 60.698,257.495 C60.045,258.039 59.925,260.522 61.198,259.846 C64.14,258.286 68.364,257.58 70.4,254.793 C70.644,254.459 70.824,253.622 70.328,253.393" fill="#ACD2F2"/>
    <path d="M91.008,93.173 C85.51,94.31 81.166,99.663 77.306,103.504 C73.517,107.276 69.872,111.231 66.534,115.408 C63.877,118.733 61.367,122.179 58.997,125.72 C52.685,131.701 48.921,140.678 46.105,148.807 C42.378,156.934 39.318,165.364 37.008,174.002 C34.285,184.182 31.706,195.168 34.779,205.496 C34.973,206.149 35.744,206.861 36.403,206.249 C40.029,202.882 40.03,197.187 41.034,192.645 C42.172,187.496 43.146,182.324 44.524,177.23 C47.323,166.881 51.19,156.823 56.015,147.251 C61.088,137.187 67.313,127.861 74.323,119.054 C77.505,115.057 80.846,111.199 84.403,107.53 C87.615,104.215 92.442,101.352 93.287,96.613 C93.508,95.372 92.692,92.825 91.008,93.173" fill="#ACD2F2"/>
    <path d="M493.496,261.272 C486.436,261.051 478.701,267.198 472.482,270.269 C466.496,273.226 460.371,275.86 454.108,278.174 C441.066,282.993 427.478,286.431 413.701,288.313 C383.85,292.39 353.525,290.159 324.832,280.831 C308.922,275.659 294.088,268.106 279.193,260.638 C278.327,260.205 277.66,262.271 278.272,262.791 C301.546,282.562 333.33,292.448 363.266,296.156 C393.271,299.873 423.888,297.319 452.646,287.855 C460.877,285.147 468.937,281.88 476.711,278.051 C482.871,275.017 493.5,271.318 494.855,263.85 C495.017,262.955 494.665,261.309 493.496,261.272" fill="#ACD2F2"/>
    <path d="M631.121,21.146 C631.321,21.278 631.243,21.19 630.853,20.856 C630.475,20.468 630.047,20.159 629.576,20.003 C629.577,20.004 629.578,20.005 629.58,20.006 C629.278,19.87 628.963,19.765 628.633,19.691 C627.061,18.993 625.335,18.539 623.686,18.069 C620.142,17.057 616.555,16.176 612.966,15.335 C605.311,13.542 597.57,12.106 589.794,10.96 C574.518,8.71 559.047,7.601 543.606,7.703 C528.359,7.804 512.943,8.875 497.919,11.543 C490.311,12.894 482.749,14.54 475.297,16.582 C472.273,17.41 469.016,18.112 466.203,19.521 C462.46,21.395 459.363,23.872 455.384,25.45 C455.262,25.499 455.104,25.812 455.332,25.756 C459.025,24.855 462.374,24.919 466.15,24.782 C469.34,24.667 472.454,23.803 475.566,23.143 C483.432,21.474 491.309,19.932 499.266,18.762 C514.183,16.568 529.146,15.113 544.231,14.952 C573.204,14.642 601.799,18.924 629.738,26.438 C633.174,27.361 632.891,23.297 631.121,21.146" fill="#ACD2F2"/>
    <path d="M672.891,194.18 C665.034,183.743 655.741,174.378 647.217,164.425 C638.26,153.962 629.247,143.46 619.856,133.383 C611.697,124.629 602.978,116.493 593.502,109.178 C588.61,105.4 583.633,101.717 578.278,98.613 C574.685,96.53 568.555,91.805 564.432,93.74 C564.032,93.928 563.736,94.677 564.02,95.053 C567.27,99.354 573.405,101.312 577.935,104.009 C582.78,106.892 587.543,109.943 592.012,113.388 C601.619,120.796 610.28,129.522 618.475,138.44 C627.394,148.146 635.411,158.543 643.796,168.695 C652.286,178.971 660.57,190.033 671.457,197.871 C673.491,199.336 673.679,195.225 672.891,194.18" fill="#ACD2F2"/>
    <path d="M483.877,517.937 C478.848,514.322 472.109,513.415 466.105,512.425 C459.701,511.37 453.238,510.863 446.75,510.835 C435.012,510.787 423.237,512.457 411.932,515.603 C400.745,518.714 390.047,523.565 380.141,529.6 C375.361,532.511 370.803,535.766 366.459,539.294 C361.587,543.251 356.552,547.232 354.508,553.364 C354.323,553.917 354.284,555.811 355.389,555.467 C360.861,553.767 364.782,548.717 369.116,545.202 C373.596,541.568 378.378,538.294 383.34,535.354 C393.794,529.158 405.231,524.718 416.983,521.697 C428.463,518.745 440.392,517.395 452.242,517.781 C457.98,517.968 463.716,518.541 469.369,519.536 C473.403,520.247 479.719,523.256 483.649,521.714 C484.902,521.222 484.882,518.66 483.877,517.937" fill="#ACD2F2"/>
    <g clip-path="url(#Clip_1)" opacity="0.51">
      <path d="M416.47,321.11 C415.481,315.089 412.71,309.679 408.611,305.16 C406.321,302.65 400.901,296.82 397.16,298.58 C396.41,298.929 396.02,300.5 396.58,301.139 C371.26,305.28 345.151,295.49 321.44,287.57 C309.35,283.53 297.41,278.81 286.241,272.63 C281.33,269.91 276.561,266.91 272.05,263.56 C266.33,259.33 261.571,254.2 256.41,249.38 C255.95,248.95 255.54,248.81 255.19,248.839 C253.88,246.509 252.45,244.29 250.811,242.299 C249.76,241.019 248.8,243.45 248.991,244.29 C250.29,249.969 253.44,255.259 255.91,260.5 C257.91,264.759 259.91,269.019 261.92,273.28 C266.18,282.31 270.571,291.269 274.95,300.25 C279.311,309.17 283.46,318.23 288.031,327.049 C292.21,335.15 296.5,344.04 302.66,350.839 C303.77,352.07 304.561,350.11 304.46,348.65 C304.71,348.83 304.981,348.98 305.281,349.099 C312.87,352.04 321.63,349 329.3,347.509 C339.02,345.63 348.72,343.589 358.321,341.15 C367.5,338.82 376.62,336.259 385.7,333.53 C395.731,330.519 405.27,326.519 415.33,323.83 C416.39,323.54 416.62,322 416.47,321.11" fill="#152B40"/>
    </g>
    <path d="M719.449,411.87 C712.847,439.547 700.888,465.416 685.385,489.208 C677.765,500.899 669.416,512.101 660.637,522.945 C655.912,528.781 651.076,534.533 646.134,540.185 C642.302,544.568 637.845,548.363 634.079,552.795 C626.47,561.748 626.027,572.704 627.567,583.919 C629.457,597.681 633.158,611.223 635.496,624.922 C637.916,639.101 639.595,653.524 638.463,667.918 C637.284,682.891 632.507,696.646 625.122,709.65 C617.889,722.387 609.129,734.256 600.84,746.311 C594.193,755.977 588.196,766.834 579.791,775.138 C578.099,776.809 573.049,782.088 570.159,781.182 C566.238,779.952 569.474,769.367 570.178,766.432 C573.228,753.725 573.162,740.074 571.999,727.091 C570.889,714.713 567.967,702.441 562.775,691.125 C557.564,679.766 549.998,670.758 540.801,662.457 C535.196,657.399 528.402,651.607 527.209,643.628 C526.298,637.54 527.718,631.223 533.425,628.135 C533.716,627.977 533.913,627.582 534.007,627.127 C534.759,626.832 535.51,626.533 536.256,626.194 C550.524,619.712 566.988,603.004 564.793,585.959 C564.572,584.248 561.281,580.693 560.174,583.692 C558.775,587.48 558.248,591.466 556.723,595.227 C555.112,599.204 552.924,602.988 550.229,606.332 C545.221,612.547 538.692,617.539 531.339,620.648 C514.545,627.75 498.048,622.297 483.808,612.242 C469.776,602.332 457.512,590.201 441.973,582.51 C426.724,574.962 409.857,570.993 392.853,570.808 C374.422,570.609 356.718,574.95 340.66,583.786 C349.314,559 365.485,537.112 389.062,524.585 C416.564,509.971 450.376,509.552 479.765,518.198 C508.308,526.597 534.658,543.812 565.412,542.538 C574.065,542.18 582.275,540.284 589.242,535.957 C585.281,546.901 585.4,558.905 588.898,570.09 C589.15,570.894 590.424,571.497 591.152,570.984 C633.478,541.197 659.732,492.547 663.334,441.096 C665.47,410.585 660.366,379.024 647.199,351.303 C634.715,325.017 611.744,306.507 587.497,291.377 C561.783,275.332 532.961,262.619 503.166,256.315 C503.222,256.22 503.285,256.128 503.341,256.032 C504.758,253.59 506.279,250.988 507.283,248.334 C507.68,247.284 507.867,246.363 507.939,245.459 C508.299,245.156 508.591,244.699 508.757,244.014 C512.124,230.064 489.799,226.266 480.663,225.741 C465.44,224.865 450.283,228.138 435.476,223.057 C419.753,217.661 404.879,208.168 390.789,199.491 C384.57,195.662 378.26,191.823 372.516,187.295 C367.342,183.215 363.149,178.141 358.224,173.833 C357.606,173.293 356.981,174.568 357.097,175.062 C357.767,177.897 357.677,179.506 359.426,182.106 C361.034,184.499 362.954,186.558 365.066,188.504 C369.44,192.537 374.314,195.934 379.275,199.198 C391.633,207.328 404.382,214.9 417.45,221.83 C429.437,228.186 441.466,232.872 455.171,233.321 C461.78,233.538 468.386,233.065 474.992,232.967 C479.739,232.895 502.635,232.158 502.303,241.266 C500.288,243.863 499.052,246.739 497.313,249.875 C495.03,253.995 492.385,257.924 489.43,261.592 C483.225,269.295 475.65,275.725 467.098,280.689 C449.287,291.027 428.017,295.139 407.688,296.612 C368.893,299.425 329.431,290.848 295.212,272.386 C284.492,266.602 274.299,259.797 264.685,252.322 C260.732,249.248 256.921,245.945 253.697,242.098 C249.638,237.253 247.755,231.901 245.39,226.106 C245.176,225.58 244.603,226.232 244.554,226.541 C243.853,230.96 244.929,235.182 246.897,239.076 C244.866,238.088 243.235,236.593 241.608,235.049 C235.61,228.852 226.695,225.53 218.493,223.58 C207.719,221.018 196.358,220.98 185.438,222.584 C173.742,224.302 162.021,228.267 153.208,236.421 C145.175,243.852 140,253.586 135.443,263.392 C130.797,273.393 126.539,283.718 119.833,292.568 C112.54,302.192 102.73,309.879 92.08,315.465 C81.887,320.811 70.801,324.512 59.507,326.677 C47.619,328.956 33.427,331.16 21.944,326.278 C14.756,323.223 8.969,317.094 8.894,308.898 C8.839,302.661 11.802,296.571 15.836,291.955 C25.703,280.663 41.588,278.549 55.455,275.76 C56.225,275.604 56.525,274.904 56.511,274.068 C57.429,274.59 58.459,274.655 59.257,273.798 C62.261,270.566 63.238,266.802 62.944,262.973 C68.042,258.599 74.377,257.684 80.928,256.445 C81.428,256.35 81.958,255.071 81.338,254.836 C74.388,252.192 67.291,256.123 62.763,261.439 C62.247,258.247 60.916,255.055 59.2,252.133 C59.844,250.636 60.55,249.18 61.608,247.891 C62.228,247.138 62.988,246.403 63.487,245.56 C64.135,244.467 64.313,243.536 65.338,242.656 C65.81,242.251 66.275,240.539 65.218,240.573 C64.006,240.612 62.574,240.516 61.4,240.804 C59.69,241.223 58.316,242.604 57.372,244.026 C56.658,245.1 56.138,246.148 55.776,247.209 C52.027,242.496 48.123,238.405 45.566,232.843 C42.651,226.501 40.722,219.717 39.69,212.821 C35.775,186.659 43.196,157.892 56.65,135.378 C69.687,113.56 89.243,96.438 111.624,84.66 C137.601,70.99 166.492,61.699 194.629,53.619 C252.445,37.014 312.724,29.164 372.844,33.13 C386.619,34.038 400.59,34.397 414.172,37.067 C426.722,39.534 439.242,43.321 451.655,46.414 C480.07,53.494 507.651,64.063 533.714,77.398 C629.273,126.292 711.16,218.172 723.953,327.757 C727.22,355.743 725.995,384.425 719.449,411.87 M60.506,333.396 L60.576,333.385 C74.567,330.832 88.57,326.101 100.874,318.729 C98.049,323.31 94.978,327.666 90.811,331.601 C87.486,334.741 83.803,337.579 79.86,339.905 C76.623,341.815 72.81,343.479 68.982,343.471 C66.095,343.463 62.062,340.758 60.81,338.224 C60.095,336.779 60.178,334.98 60.506,333.396 M598.347,527.918 C606.617,517.699 612.218,504.552 615.629,491.938 C623.466,462.953 617.55,432.121 601.424,407.055 C585.81,382.785 562.876,362.016 539.762,345.004 C515.155,326.895 487.637,315.598 456.815,315.111 C424.011,314.593 392.247,324.158 360.998,332.98 C344.925,337.517 328.758,341.944 312.258,344.652 C295.355,347.426 278.303,347.93 261.208,347.376 C226.448,346.25 191.698,343.554 156.97,341.685 C150.427,341.333 143.882,340.995 137.338,340.658 C139.162,339 140.928,337.237 142.634,335.349 C142.831,335.132 143.015,334.123 142.444,334.349 C139.252,335.604 136.443,337.545 133.276,338.871 C130.666,339.965 128.066,340.904 125.549,342.219 C120.78,344.708 116.024,347.25 111.156,349.541 C101.041,354.304 90.473,358.105 79.638,360.865 C70.021,363.314 56.338,366.571 47.831,359.535 C40.859,353.767 41.178,342.342 46.037,335.341 C50.086,335.054 54.115,334.498 58.035,333.832 C57.695,337.93 59.468,341.951 63.285,344.126 C67.989,346.807 73.529,345.674 78.246,343.664 C85.272,340.671 91.588,335.48 96.761,329.933 C100.79,325.613 105.415,320.006 107.818,314.141 C113.463,310.034 118.636,305.291 123.103,299.811 C137.954,281.594 141.077,254.589 159.754,239.463 C171.199,230.193 186.912,227.244 201.317,227.214 C208.82,227.197 216.375,228.168 223.547,230.42 C229.267,232.216 233.971,235.493 239.103,238.177 C239.624,239.106 240.108,240.057 240.883,240.825 C241.368,241.307 241.913,241.735 242.449,242.157 C243.424,242.925 244.439,243.627 245.532,244.217 C247.199,245.116 249.576,246.413 251.6,246.188 C252.57,247.392 253.579,248.55 254.59,249.647 C261.663,257.324 270.224,263.666 278.929,269.354 C297.113,281.236 317.099,290.191 338.009,296.059 C358.544,301.822 380.001,304.498 401.324,303.889 C422.994,303.268 445.47,299.738 465.233,290.505 C475.845,285.547 485.318,278.664 493.178,269.969 C496.523,266.266 499.509,262.239 502.133,257.993 C527.077,264.044 550.99,272.701 573.28,285.67 C596.064,298.926 619.958,316.056 634.916,338.154 C650.038,360.495 657.426,388.902 659.685,415.519 C662.342,446.816 656.676,478.375 642.65,506.486 C630.531,530.776 612.744,551.935 590.764,567.855 C587.637,556.315 588.675,544.68 592.745,533.476 C594.75,531.874 596.631,530.04 598.347,527.918 M481.06,16.693 C500.174,11.537 519.934,9.016 539.719,8.744 C559.574,8.472 579.444,10.579 598.851,14.761 C609.262,17.004 619.503,19.967 629.648,23.192 C639.128,26.205 648.963,28.989 657.974,33.255 C663.667,35.95 670.406,39.86 673.762,45.236 C677.251,50.823 675.08,55.177 669.434,57.794 C666.406,59.198 662.224,59.805 658.951,60.639 C656.071,61.371 653.163,61.992 650.233,62.488 C648.016,62.864 645.786,63.13 643.564,63.427 C643.47,63.336 643.356,63.267 643.213,63.236 C630.701,60.566 615.154,67.41 604.467,73.566 C598.954,76.741 593.752,80.474 589.017,84.725 C586.523,86.965 584.155,89.345 581.938,91.861 C579.565,94.555 578.895,95.58 578.415,98.252 C557.55,83.952 535.313,71.637 512.147,61.49 C497.86,55.233 483.205,49.804 468.279,45.274 C456.548,41.712 444.553,39.21 432.701,36.14 C439.673,32.902 446.393,29.021 453.508,26.086 C462.482,22.384 471.686,19.223 481.06,16.693 M587.247,104.483 C585.265,103.044 583.265,101.631 581.259,100.229 C582.418,99.604 583.178,98.532 584.44,97.071 C586.634,94.536 588.973,92.127 591.45,89.867 C596.475,85.283 602.015,81.294 607.968,78.001 C613.627,74.87 619.59,72.428 625.765,70.524 C629.612,69.338 633.711,68.774 637.614,67.781 C642.558,67.989 647.498,66.959 652.333,65.805 C658.844,64.25 664.776,61.212 671.119,59.499 C674.709,58.53 678.415,57.54 679.806,53.671 C681.176,49.864 679.464,45.985 677.514,42.721 C671.853,33.238 662.687,28.472 652.692,24.67 C641.94,20.581 630.845,17.161 619.805,13.946 C577.82,1.72 533.369,-1.514 490.406,7.521 C478.875,9.946 467.47,13.232 456.506,17.564 C445.933,21.742 433.871,26.462 425.228,34.132 C413.01,30.753 400.765,29.048 388.1,28.168 C372.152,27.059 356.197,26.017 340.203,26.002 C309.386,25.974 278.578,28.942 248.262,34.428 C217.548,39.985 187.322,48.106 157.849,58.366 C131.202,67.641 103.938,77.866 81.846,95.92 C61.781,112.319 46.966,133.772 39.13,158.475 C31.053,183.936 28.789,214.357 42.549,238.4 C47.2,246.526 64.007,259.24 54.743,269.202 C54.394,269.578 54.25,270.049 54.253,270.552 C54.159,270.539 54.064,270.526 53.969,270.535 C40.572,271.744 26.001,273.932 15.13,282.526 C7.049,288.916 1.298,299.334 2.599,309.83 C3.948,320.703 12.92,329.108 22.826,332.742 C27.58,334.486 32.59,335.287 37.671,335.491 C34.373,342.501 34.848,350.744 39.085,357.716 C45.299,367.941 57.566,370.736 68.741,369.567 C82.781,368.099 96.804,363.318 109.698,357.728 C117.732,354.246 125.137,350.274 131.858,345.193 C131.989,345.244 132.125,345.279 132.268,345.291 C166.412,347.967 200.575,350.215 234.764,352.208 C251.427,353.18 268.122,354.261 284.82,353.786 C300.053,353.353 315.103,351.269 329.983,348.032 C361.887,341.094 392.654,329.428 424.943,324.184 C456.571,319.049 488.137,320.98 516.741,336.4 C529.704,343.389 541.539,352.281 552.72,361.821 C563.908,371.366 574.758,381.457 584.365,392.611 C604.702,416.22 616.694,445.508 612.196,477.003 C610.202,490.962 605.101,504.693 597.73,516.719 C594.211,522.459 589.83,527.955 583.851,531.26 C577.89,534.555 570.92,535.869 564.183,536.225 C533.745,537.836 507.49,520.457 479.258,512.155 C451.122,503.882 419.694,503.756 392.444,515.344 C369.372,525.154 350.316,544.599 340.053,567.386 C337.425,573.221 335.782,578.998 334.689,585.292 C334.541,586.15 335.125,587.34 335.924,588.227 C336.024,588.905 336.165,589.567 336.396,590.189 C336.676,590.937 337.433,590.046 337.582,589.724 C337.63,589.621 337.665,589.513 337.705,589.405 C338.299,589.516 338.824,589.261 339.118,588.433 C372.615,572.291 414.102,572.371 446.605,591.001 C462.338,600.018 474.74,613.761 490.54,622.693 C501.99,629.168 514.798,631.944 527.274,629.187 C523.525,633.577 522.536,640.107 523.852,645.936 C526.604,658.121 538.085,665.245 546.013,673.893 C565.41,695.052 569.395,728.749 565.399,756.166 C564.104,765.055 557.94,777.517 566.056,785 C572.788,791.204 580.903,784.801 585.911,779.646 C594.783,770.516 601.274,758.775 608.46,748.34 C616.956,736 625.963,723.82 633.065,710.598 C647.712,683.33 646.871,653.787 641.681,624.08 C639.301,610.453 635.464,596.921 633.875,583.182 C633.105,576.526 632.922,569.196 636.113,563.098 C639.05,557.486 644.25,553.453 648.549,548.948 C668.919,527.599 687.14,502.724 701.633,477.041 C716.151,451.313 725.867,423.441 729.802,394.133 C745.235,279.171 677.58,170.086 587.247,104.483" fill="#2C4555"/>
    <path d="M143.435,228.338 C143.201,226.602 142.968,224.865 142.735,223.129 C141.804,219.81 140.124,216.928 137.696,214.484 C136.373,213.462 135.052,212.441 133.73,211.419 C130.674,209.647 127.377,208.755 123.841,208.744 C121.143,208.643 118.626,209.205 116.291,210.432 C113.863,211.222 111.761,212.572 109.986,214.484 C108.076,216.258 106.725,218.359 105.935,220.789 C104.707,223.124 104.145,225.641 104.247,228.338 C104.48,230.074 104.713,231.811 104.947,233.547 C105.878,236.866 107.558,239.748 109.986,242.193 C111.308,243.214 112.629,244.235 113.952,245.257 C117.007,247.029 120.304,247.921 123.841,247.932 C126.539,248.033 129.055,247.471 131.39,246.244 C133.819,245.454 135.921,244.104 137.696,242.193 C139.607,240.418 140.956,238.317 141.748,235.887 C142.974,233.552 143.537,231.035 143.435,228.338" fill="#1F1A16"/>
    <path d="M132.842,213.681 C129.424,213.681 129.418,218.993 132.842,218.993 C136.261,218.993 136.266,213.681 132.842,213.681" fill="#FFFFFF"/>
    <path d="M139.168,178.327 C132.075,175.138 123.95,175.906 116.742,178.472 C108.954,181.242 103.812,186.159 100.775,193.863 C100.51,194.536 100.688,196.685 101.888,195.92 C108.193,191.894 114.496,187.461 121.689,185.157 C127.609,183.261 133.298,184.17 139.262,183.355 C141.365,183.068 140.631,178.985 139.168,178.327" fill="#1F1A16"/>
  </g>
</svg>
