<?xml version="1.0" standalone="no"?><svg xmlns="http://www.w3.org/2000/svg" viewBox="0 0 1440 320"><path fill="#0099ff" fill-opacity="1" d="M0,192L30,186.7C60,181,120,171,180,170.7C240,171,300,181,360,165.3C420,149,480,107,540,74.7C600,43,660,21,720,32C780,43,840,85,900,122.7C960,160,1020,192,1080,202.7C1140,213,1200,203,1260,213.3C1320,224,1380,256,1410,272L1440,288L1440,320L1410,320C1380,320,1320,320,1260,320C1200,320,1140,320,1080,320C1020,320,960,320,900,320C840,320,780,320,720,320C660,320,600,320,540,320C480,320,420,320,360,320C300,320,240,320,180,320C120,320,60,320,30,320L0,320Z"></path></svg>